<?xml version="1.0" encoding="UTF-8" standalone="no"?>
<svg
   width="35"
   height="200"
   version="1.1"
   id="svg15"
   sodipodi:docname="add-workspace-active.svg"
   inkscape:version="1.1 (c4e8f9ed74, 2021-05-24)"
   xmlns:inkscape="http://www.inkscape.org/namespaces/inkscape"
   xmlns:sodipodi="http://sodipodi.sourceforge.net/DTD/sodipodi-0.dtd"
   xmlns="http://www.w3.org/2000/svg"
   xmlns:svg="http://www.w3.org/2000/svg">
  <sodipodi:namedview
     id="namedview17"
     pagecolor="#ffffff"
     bordercolor="#666666"
     borderopacity="1.0"
     inkscape:pageshadow="2"
     inkscape:pageopacity="0.0"
     inkscape:pagecheckerboard="0"
     showgrid="false"
     inkscape:zoom="4.135"
     inkscape:cx="-28.657799"
     inkscape:cy="100"
     inkscape:window-width="3410"
     inkscape:window-height="1407"
     inkscape:window-x="0"
     inkscape:window-y="1080"
     inkscape:window-maximized="1"
     inkscape:current-layer="g13" />
  <defs
     id="defs5">
    <filter
       id="filter4154"
       x="-0.13200004"
       y="-0.020842111"
       width="1.2640001"
       height="1.0416842"
       color-interpolation-filters="sRGB">
      <feGaussianBlur
         stdDeviation="1.6500004"
         id="feGaussianBlur2" />
    </filter>
  </defs>
  <g
     transform="translate(0 -852.36)"
     shape-rendering="auto"
     id="g13">
    <path
       d="m7.2 858.36h28v190h-28c-1.108 0-2-0.892-2-2v-186c0-1.108 0.892-2 2-2z"
       color="#000000"
       color-rendering="auto"
       fill="#000000"
       fill-opacity=".44"
       filter="url(#filter4154)"
       image-rendering="auto"
       opacity=".9"
       solid-color="#000000"
       style="isolation:auto;mix-blend-mode:normal"
       id="path7" />
    <path
       d="m7 857.36h28v190h-28c-1.108 0-2-0.892-2-2v-186c0-1.108 0.892-2 2-2z"
       color="#000000"
       color-rendering="auto"
       fill="#0860f2"
       image-rendering="auto"
       solid-color="#000000"
       style="isolation:auto;mix-blend-mode:normal;fill:#336541;fill-opacity:1"
       id="path9" />
    <path
       transform="translate(0 852.36)"
       d="m18 94c-0.554 0-1 0.446-1 1v4h-4c-0.554 0-1 0.446-1 1s0.446 1 1 1h4v4c0 0.554 0.446 1 1 1s1-0.446 1-1v-4h4c0.554 0 1-0.446 1-1s-0.446-1-1-1h-4v-4c0-0.554-0.446-1-1-1zm8 6a8 8 0 0 1-8 8 8 8 0 0 1-8-8 8 8 0 0 1 8-8 8 8 0 0 1 8 8z"
       color="#000000"
       color-rendering="auto"
       fill="#eceff1"
       image-rendering="auto"
       solid-color="#000000"
       style="isolation:auto;mix-blend-mode:normal"
       id="path11" />
  </g>
</svg>
